<svg id="visual" viewBox="0 0 900 600" width="900" height="600" xmlns="http://www.w3.org/2000/svg" xmlns:xlink="http://www.w3.org/1999/xlink" version="1.1"><path d="M0 97L13.7 101C27.3 105 54.7 113 82 105C109.3 97 136.7 73 163.8 67C191 61 218 73 245.2 72C272.3 71 299.7 57 327 64C354.3 71 381.7 99 409 108C436.3 117 463.7 107 491 102C518.3 97 545.7 97 573 91C600.3 85 627.7 73 654.8 67C682 61 709 61 736.2 69C763.3 77 790.7 93 818 103C845.3 113 872.7 117 886.3 119L900 121L900 0L886.3 0C872.7 0 845.3 0 818 0C790.7 0 763.3 0 736.2 0C709 0 682 0 654.8 0C627.7 0 600.3 0 573 0C545.7 0 518.3 0 491 0C463.7 0 436.3 0 409 0C381.7 0 354.3 0 327 0C299.7 0 272.3 0 245.2 0C218 0 191 0 163.8 0C136.7 0 109.3 0 82 0C54.7 0 27.3 0 13.7 0L0 0Z" fill="#e98a88"></path><path d="M0 241L13.7 235C27.3 229 54.7 217 82 196C109.3 175 136.7 145 163.8 143C191 141 218 167 245.2 175C272.3 183 299.7 173 327 173C354.3 173 381.7 183 409 193C436.3 203 463.7 213 491 210C518.3 207 545.7 191 573 183C600.3 175 627.7 175 654.8 181C682 187 709 199 736.2 197C763.3 195 790.7 179 818 173C845.3 167 872.7 171 886.3 173L900 175L900 119L886.3 117C872.7 115 845.3 111 818 101C790.7 91 763.3 75 736.2 67C709 59 682 59 654.8 65C627.7 71 600.3 83 573 89C545.7 95 518.3 95 491 100C463.7 105 436.3 115 409 106C381.7 97 354.3 69 327 62C299.7 55 272.3 69 245.2 70C218 71 191 59 163.8 65C136.7 71 109.3 95 82 103C54.7 111 27.3 103 13.7 99L0 95Z" fill="#e0706e"></path><path d="M0 319L13.7 306C27.3 293 54.7 267 82 250C109.3 233 136.7 225 163.8 226C191 227 218 237 245.2 236C272.3 235 299.7 223 327 224C354.3 225 381.7 239 409 258C436.3 277 463.7 301 491 299C518.3 297 545.7 269 573 254C600.3 239 627.7 237 654.8 249C682 261 709 287 736.2 285C763.3 283 790.7 253 818 245C845.3 237 872.7 251 886.3 258L900 265L900 173L886.3 171C872.7 169 845.3 165 818 171C790.7 177 763.3 193 736.2 195C709 197 682 185 654.8 179C627.7 173 600.3 173 573 181C545.7 189 518.3 205 491 208C463.7 211 436.3 201 409 191C381.7 181 354.3 171 327 171C299.7 171 272.3 181 245.2 173C218 165 191 139 163.8 141C136.7 143 109.3 173 82 194C54.7 215 27.3 227 13.7 233L0 239Z" fill="#d55454"></path><path d="M0 439L13.7 448C27.3 457 54.7 475 82 456C109.3 437 136.7 381 163.8 368C191 355 218 385 245.2 409C272.3 433 299.7 451 327 458C354.3 465 381.7 461 409 452C436.3 443 463.7 429 491 433C518.3 437 545.7 459 573 462C600.3 465 627.7 449 654.8 434C682 419 709 405 736.2 386C763.3 367 790.7 343 818 362C845.3 381 872.7 443 886.3 474L900 505L900 263L886.3 256C872.7 249 845.3 235 818 243C790.7 251 763.3 281 736.2 283C709 285 682 259 654.8 247C627.7 235 600.3 237 573 252C545.7 267 518.3 295 491 297C463.7 299 436.3 275 409 256C381.7 237 354.3 223 327 222C299.7 221 272.3 233 245.2 234C218 235 191 225 163.8 224C136.7 223 109.3 231 82 248C54.7 265 27.3 291 13.7 304L0 317Z" fill="#b94748"></path><path d="M0 601L13.7 601C27.3 601 54.7 601 82 601C109.3 601 136.7 601 163.8 601C191 601 218 601 245.2 601C272.3 601 299.7 601 327 601C354.3 601 381.7 601 409 601C436.3 601 463.7 601 491 601C518.3 601 545.7 601 573 601C600.3 601 627.7 601 654.8 601C682 601 709 601 736.2 601C763.3 601 790.7 601 818 601C845.3 601 872.7 601 886.3 601L900 601L900 503L886.3 472C872.7 441 845.3 379 818 360C790.7 341 763.3 365 736.2 384C709 403 682 417 654.8 432C627.7 447 600.3 463 573 460C545.7 457 518.3 435 491 431C463.7 427 436.3 441 409 450C381.7 459 354.3 463 327 456C299.7 449 272.3 431 245.2 407C218 383 191 353 163.8 366C136.7 379 109.3 435 82 454C54.7 473 27.3 455 13.7 446L0 437Z" fill="#9e3b3c"></path></svg>